<svg xmlns="http://www.w3.org/2000/svg" viewBox="0 0 139.72 191.07"><defs><style>.cls-1{fill:#3a4de2;}.cls-2{fill:#08f;}.cls-3{fill:#ff9800;}.cls-4{fill:#e47500;}.cls-5{fill:#ffb74d;}.cls-6{fill:#ffa81f;}</style></defs><title>medal</title><g id="Слой_2" data-name="Слой 2"><g id="Capa_1" data-name="Capa 1"><polygon class="cls-1" points="88.38 0 64.49 45.44 53.63 73.06 53.63 79.13 53.63 79.13 53.63 79.13 53.63 85.2 94.92 85.2 139.72 0 88.38 0"/><polygon class="cls-2" points="51.34 0 0 0 44.8 85.2 96.13 85.2 51.34 0"/><path class="cls-3" d="M122.23,138.7A52.37,52.37,0,1,1,45.32,92.42v-14H94.4v14A52.43,52.43,0,0,1,122.23,138.7Z"/><path class="cls-4" d="M122.23,138.7a52.43,52.43,0,0,1-52.37,52.37V78.41H94.4v14A52.43,52.43,0,0,1,122.23,138.7Z"/><path class="cls-5" d="M103.87,138.7a34,34,0,1,1-34-34A34,34,0,0,1,103.87,138.7Z"/><rect class="cls-6" x="33.81" y="78.41" width="72.09" height="11.2"/><path class="cls-3" d="M103.87,138.7a34,34,0,0,1-34,34v-68A34,34,0,0,1,103.87,138.7Z"/><rect class="cls-3" x="69.86" y="78.41" width="36.05" height="11.2"/></g></g></svg>