<svg xmlns="http://www.w3.org/2000/svg" viewBox="0 0 144.34 198.09"><defs><style>.cls-1{fill:#60dc4d;}.cls-2{fill:#00ba63;}.cls-3{fill:#ff9800;}.cls-4{fill:#e47500;}.cls-5{fill:#ffb74d;}</style></defs><title>medal2</title><g id="Слой_2" data-name="Слой 2"><g id="Capa_1" data-name="Capa 1"><polygon class="cls-1" points="64.41 132.75 64.1 133.4 34.7 123.8 29.45 121.32 2.96 177.61 29.38 177.95 46.48 198.09 74.91 137.69 64.41 132.75"/><polygon class="cls-2" points="115.86 123.36 110.61 125.83 80.4 133.73 79.94 132.75 69.44 137.69 97.86 198.09 114.97 177.95 141.39 177.61 115.86 123.36"/><path class="cls-3" d="M144.34,72.17A72.17,72.17,0,1,1,72.17,0,72.25,72.25,0,0,1,144.34,72.17Z"/><path class="cls-4" d="M144.34,72.17a72.25,72.25,0,0,1-72.17,72.17V0A72.25,72.25,0,0,1,144.34,72.17Z"/><circle class="cls-5" cx="72.17" cy="72.17" r="47.94"/><path class="cls-3" d="M120.11,72.17a47.94,47.94,0,0,1-47.94,47.94V24.23A47.94,47.94,0,0,1,120.11,72.17Z"/></g></g></svg>