<svg xmlns="http://www.w3.org/2000/svg" viewBox="0 0 100.11 100.11"><defs><style>.cls-1{fill:#4ce57b;}</style></defs><title>otzivi_smile</title><g id="Слой_2" data-name="Слой 2"><g id="Слой_1-2" data-name="Слой 1"><path class="cls-1" d="M93.4,24.93A49.84,49.84,0,0,0,75.18,6.71,49,49,0,0,0,50.06,0,49,49,0,0,0,24.93,6.71,49.8,49.8,0,0,0,6.71,24.93,49,49,0,0,0,0,50.06,49,49,0,0,0,6.71,75.18,49.82,49.82,0,0,0,24.93,93.4a49,49,0,0,0,25.13,6.71A49,49,0,0,0,75.18,93.4,49.83,49.83,0,0,0,93.4,75.18a49,49,0,0,0,6.71-25.13A49,49,0,0,0,93.4,24.93Zm-5,41.32A41.13,41.13,0,0,1,66.25,88.45a41.12,41.12,0,0,1-32.39,0A41.13,41.13,0,0,1,11.67,66.25a41.12,41.12,0,0,1,0-32.39A41.13,41.13,0,0,1,33.86,11.67a41.12,41.12,0,0,1,32.39,0A41.13,41.13,0,0,1,88.45,33.86a41.12,41.12,0,0,1,0,32.39Zm0,0"/><path class="cls-1" d="M71.24,57.51a4.11,4.11,0,0,0-3.19.26A4,4,0,0,0,66,60.25a16.62,16.62,0,0,1-15.9,11.67,16.63,16.63,0,0,1-15.9-11.67,4,4,0,0,0-2.05-2.48,4,4,0,0,0-3.16-.26,4.12,4.12,0,0,0-2.74,5.21,24.07,24.07,0,0,0,9,12.71,24.51,24.51,0,0,0,14.86,4.82,24.53,24.53,0,0,0,14.86-4.82,24.12,24.12,0,0,0,9-12.71,4.16,4.16,0,0,0-2.67-5.21Zm0,0"/><path class="cls-1" d="M33.37,41.71a8.35,8.35,0,0,0,8.34-8.34A8.35,8.35,0,0,0,33.37,25,8.35,8.35,0,0,0,25,33.37a8.35,8.35,0,0,0,8.34,8.34Zm0,0"/><path class="cls-1" d="M66.74,25a8.35,8.35,0,0,0-8.34,8.34,8.34,8.34,0,1,0,14.24-5.9A8,8,0,0,0,66.74,25Zm0,0"/></g></g></svg>