<svg xmlns="http://www.w3.org/2000/svg" viewBox="0 0 61.87 82.18"><defs><style>.cls-1{fill:#ed1c24;}.cls-2{fill:#fbb040;}</style></defs><title>otzivi_fire</title><g id="Слой_2" data-name="Слой 2"><g id="Слой_1-2" data-name="Слой 1"><path class="cls-1" d="M12.41,74.75C8.64,70.47,4.86,66,2.46,60.69A31.88,31.88,0,0,1,.58,42.35a39.57,39.57,0,0,1,7.89-17,16.35,16.35,0,0,0,4.11,12c-1.71-8.23,1-17.15,6.52-23.66S32.13,2.91,40,0c-3.94,4.11-4.46,10.63-2.91,16.12s4.8,10.29,7.72,15.26,5.66,10.12,5.83,15.77a55.14,55.14,0,0,0,4.29-9.09,18,18,0,0,0,.69-9.94,25.5,25.5,0,0,1,5.66,12.34A51.88,51.88,0,0,1,61.44,55c-.69,5.31-2.06,10.8-5,15.26A28.63,28.63,0,0,1,41.56,81.44C30.93,83.33,20.47,81.78,12.41,74.75Z"/><path class="cls-2" d="M25.44,81.1C39.5,86.58,53.39,70,45.67,57.09c0-.17-.17-.17-.17-.34.69,7-1,12.17-4.29,15.09,1.71-4.11.51-8.92-1.54-13-2.06-3.94-5-7.54-7.2-11.32-2.23-3.94-3.94-8.4-2.91-12.86a22.61,22.61,0,0,0-8.23,12.69A23,23,0,0,0,23,62.41a11.27,11.27,0,0,1-4.63-8.23A17.65,17.65,0,0,0,14.12,66C14.12,72.7,19.44,78.7,25.44,81.1Z"/></g></g></svg>