<svg xmlns="http://www.w3.org/2000/svg" viewBox="0 0 231.48 192.63"><defs><style>.cls-1{fill:#ff9800;}.cls-2{fill:#ffb74d;}.cls-3{fill:#e57500;}.cls-4{fill:#ffda2d;}.cls-5{fill:#9f7953;}.cls-6{fill:#715539;}.cls-7{fill:#fdbf00;}</style></defs><title>otzivy_kubok</title><g id="Слой_2" data-name="Слой 2"><g id="Capa_1" data-name="Capa 1"><rect class="cls-1" x="58.21" y="166.84" width="114.6" height="25.79"/><rect class="cls-2" x="91.29" y="77.49" width="48.44" height="36"/><path class="cls-3" d="M191.45,8.95V22.49h23.43c-4.11,11.94-15.74,33.3-46.26,33.3v1.5L162,55.77c-.3,1.31-2.73,13.06,4.47,22.1,4.76,6,12.24,9,22.22,9V73.35c-5.61,0-9.51-1.3-11.58-3.86-.15-.19-.29-.39-.42-.59,22.78-2.47,35.92-15.18,43.09-26a71.26,71.26,0,0,0,10.54-26.16l1.16-7.77Z"/><path class="cls-1" d="M62.86,57.29v-1.5c-30.53,0-42.16-21.37-46.26-33.3H40V8.95H0l1.16,7.77A71.25,71.25,0,0,0,11.69,42.88C18.87,53.72,32,66.44,54.79,68.9c-.12.18-.25.37-.39.54-2.06,2.59-6,3.91-11.62,3.91V86.89c10,0,17.45-3,22.22-9,7.2-9,4.77-20.79,4.47-22.1Z"/><path class="cls-4" d="M195.47,6.93a80.06,80.06,0,0,1-80,80h0a80.06,80.06,0,0,1-80-80V0H195.42Z"/><rect class="cls-5" x="72.78" y="99.94" width="85.44" height="66.89"/><rect class="cls-1" x="115.52" y="77.49" width="24.21" height="36"/><rect class="cls-3" x="115.52" y="166.84" width="57.29" height="25.79"/><rect class="cls-6" x="115.52" y="99.94" width="42.71" height="66.89"/><path class="cls-7" d="M195.47,6.93a80.06,80.06,0,0,1-80,80V0h79.9Z"/><polygon class="cls-4" points="121.49 136.53 122.9 144.74 115.52 140.87 108.14 144.74 109.55 136.53 103.58 130.71 111.83 129.51 115.52 122.04 119.21 129.51 127.46 130.71 121.49 136.53"/><polygon class="cls-7" points="122.9 144.74 115.52 140.87 115.52 122.04 119.21 129.51 127.46 130.71 121.49 136.53 122.9 144.74"/></g></g></svg>