<svg xmlns="http://www.w3.org/2000/svg" viewBox="0 0 42.2 48.1"><defs><style>.cls-1{fill:#c16223;}.cls-2{fill:#f1862b;}.cls-3{fill:#fff;}</style></defs><title>otzivy_top5</title><g id="Слой_2" data-name="Слой 2"><g id="Слой_1-2" data-name="Слой 1"><g id="_5" data-name=" 5"><path id="tail" class="cls-1" d="M33.9,25.8H8.5V48.1l12.7-4.3,12.7,4.3Z"/><path id="plate" class="cls-2" d="M23.2,0l1.6,1.6L26.9.7l1.3,1.9,2.2-.5,1,2.1,2.3-.1.6,2.2,2.3.3.2,2.3,2.2.7-.3,2.3,2,1.1L40,15.1l1.8,1.4-1.1,2.1,1.5,1.7L41,22.2l1.2,2-1.7,1.6.8,2.2-2,1.2.4,2.3-2.1.9v2.3l-2.2.3L35,37.2H32.7l-.8,2.2L29.6,39l-1.2,2-2.2-.8L24.7,42l-2-1.1L21,42.4l-1.8-1.5-2,1.1-1.5-1.8-2.1.8-1.1-2-2.3.3-.8-2.2L7.1,37l-.4-2.3-2.3-.5L4.5,32l-2.1-.9.5-2.3L1,27.6l.9-2.1L.2,23.9l1.2-2L0,20.1l1.6-1.7-1-2.1,1.8-1.4-.6-2.2,2.1-1L3.7,9.4l2.2-.7.2-2.3,2.3-.3L9,3.9l2.3.2,1-2.1,2.2.6L15.8.7l2.1,1L19.4,0l1.9,1.3Z"/><g id="circles"><path class="cls-3" d="M21.2,3h3.2l.2.1.2.1.2.1.2.1.8.3.2.1.2.1.2.1.2.1L27,4l.2.1.2.1.2.1.2.1.2.1.2.1.2.1.2.1.2.1L29,5h.3l.2.1.2.1.2.1.1.1.2.1.2.1.2.1.2.1L31,6l.2.1.2.1.2.1.2.1.2.1v.2l.2.1.2.2.2.1.2.1.2.1v.3l.2.1.2.1.1.2.2.2.2.2.1.1.2.2.2.2.1.2.1.2.1.2.1.2.1.2.1.2.1.2.1.2.1.2.1.2.1.2.1.2.1.2.1.2.1.2.1.2.1.2.1.2.1.2.1.2.1.2.1.2.1.2.1.2.1.2.1.2.1.2.1.2.1.2.1.2.1.2.1.2.1.2.1.2.1.2.1.2.1.2.1.2.1.2.1.2.1.2.1.2.1.2v7.2l-.1.2-.1.2-.1.2-.1.2-.1.2-.1.2-.1.2.2.9-.1.2-.1.2v.2l-.1.2-.1.2-.1.2-.1.2-.1.2-.1.2V29l-.1.2-.1.2-.1.2-.1.2-.1.2-.1.2-.1.2-.1.2-.1.2-.2.2-.1.2-.1.2-.1.2-.1.2-.1.2h-.2l-.1.2-.1.2-.1.2-.3.1-.1.2-.1.2-.1.2-.1.2-.1.2-.2.2H34l-.2.1-.2.2-.2.2-.2.1-.2.1v.2l-.2.1-.2.1-.2.1-.2.1-.2.1v.3l-.2.1-.2.1-.1.2-.2.1-.2.1-.1.2-.2.1-.2.1-.2.1-.2.1-.2.1-.2.1-.2.1-.2.1-.2.1-.2.1-.2.1-.2.1-.2.1-.2.1-.2.1-.1.1-.2.1-.2.1-.2.1H27l-.2.1-.2.1-.2.1-.2.1H26l-.2.1-.2.1-.2.1-.2.1H18l-.2-.1-.2-.1-.2-.1L16,38.7l-.2-.1-.2-.1-.2-.1-.2-.1-.2-.1-.2-.1-.2-.1-.2-.1-.3.1-.2-.1-.2-.1-.2-.1-.2-.1-.2-.1-.2-.1-.2-.1-.2-.1-.2-.1-.2-.1-.2-.1-.2-.1-.2-.1-.2-.1-.2-.1-.1-.1-.2-.1-.2-.1-.1-.2-.2-.1-.2-.1-.2-.1-.2-.1-.2-.1-.2-.1-.2-.1-.2-.1-.2-.1L8.5,35l-.2-.1-.2-.1-.2-.2.2-.6L8,33.9l-.2-.2-.1-.2-.1-.2-.1-.2-.1-.2-.1-.2H7l-.1-.2-.1-.2-.1-.2L6.4,32l-.1-.2-.1-.2L6,31.5l-.1-.2-.1-.2L5.7,31l-.1-.2-.1-.2-.1-.2-.1-.2L5.1,30,5,29.8l-.1-.2-.1-.2-.1-.2L4.6,29l-.1-.2-.1-.2-.1-.2-.1-.2L4.1,28,4,27.8v-.2l-.1-.2-.1-.2V27l-.1-.2-.1-.2-.1-.2-.1-.2L3.3,26l-.1-.2-.1-.2L3,25.4V18.2l.1-.2.1-.2.1-.2.1-.2L3.6,16l.1-.2.1-.2.1-.2.1-.2.1-.2L4,14.7l.1-.2.1-.2.1-.2.1-.2.1-.2.1-.2.1-.2.1-.2.1-.2.1-.2v-.2l.1-.2.1-.2.1-.2.1-.2.1-.2.1-.2.1-.2.2-.1.1-.2.1-.2.1-.2.1-.2.1-.2.1-.2.1-.2H7l.1-.2.1-.2L7.3,9l.1-.2.1-.2.1-.2.4.1.2-.2.2-.2V8l.2-.1.2-.1L9,7.7l.2-.1.2-.1.2-.1V7l.2-.1.2-.1.2-.1.2-.1.2-.1.2-.1.2-.1V6l.2-.1.2-.1.2-.1.2-.1.2-.1.2-.1.2-.1.2-.1.1-.2.2-.1.2-.1.2-.1.2-.1.2-.1.2-.1.2-.1.2-.1.2-.1.2-.1h.2l.2-.1.2-.1.2-.1.2-.1.3.1.2-.1.2-.1.2-.1.2-.1h2.6L20,3h1.2Zm-.4.7H17.2l-.2.1-.2.1-.2.1-.6.5-.2.1-.2.1-.2.1-.2.1L15,4.8l-.2.1-.2.1h-.2l-.2.1-.2.1-.2.1-.2.1-.2.1-.2.1-.2.1-.2.1-.2.1-.2.1h-.1l-.2.1-.1.2-.2.1-.2.1-.2.1-.2.1-.2.1-.1.2-.2.1-.2.1-.2.1-.2.1-.2.1v.2l-.2.2L9.6,8l-.2.1-.1.2-.2.1L9,8.6l-.2.1-.1.1L8.5,9l-.1.2-.1.2-.1.2-.1.2L8,10l-.1.2-.1.2-.1.2-.1.2-.1.2L7,10.7l-.1.2-.1.2-.1.2-.1.2-.1.2-.1.2-.2.1-.1.2-.1.1-.1.2-.1.2-.1.2-.1.1-.1.2-.1.2-.1.2-.1.2-.1.2-.1.2-.1.2-.1.2-.1.2V15l-.1.2-.1.2-.1.2-.1.2V16l-.1.2-.1.2-.1.2-.1.2.2.2-.1.2v7.2l.1.2.1.2.1.2.1.2.1.2.1.2.1.2.1.2-.3,1,.1.2.1.2.1.2.1.2L5,28v.1l.1.2.1.2.1.2.1.2.1.2.1.2.1.2.1.2.1.2L6,30l.1.2.1.2.1.2.1.2.1.2.1.2.1.2.1.2H7l.1.2.1.2.1.2.1.2.1.2.1.2.1.2.1.2.4-.2.1.2.1.2.1.1.1.1.4.2.2.1.2.1.2.1.2.1.2.1.2.1.2.1.2.1.2.1.2.1.2.1.2.1.2.1.2.1.2.1.2.1.2.1.2.1.2.1.2.1.2.1.2.1.2.1.2.1.2.1.2.1.2.1.2.1.2.1.2.1.2.1.2.1.2.1.2.1.2.1.2.1.2.1.2.1.2.1.2.1.2.1.2.1.2.1h7.6l.2-.1.2-.1.2-.1.2-.1.2-.1.2-.1.2-.1.2-.1.2-.1.2-.1.2-.1.2-.1.2-.1.2-.1.2-.1.2-.1.2-.1.2-.1.2-.1.2-.1.2-.1.2-.1.2-.1.2-.1.2-.1.2-.1.2-.1.2-.1.2-.1.2-.1.2-.1.2-.1.2-.1.2-.1.2-.1.2-.1.2-.1.2-.1.2-.1.2-.1.2-.1.2-.1.2-.1.2-.1.1-.1.1-.1.1-.2.1-.2.1-.2.1-.2.1-.2.1-.2.1-.2.1-.2.1-.2.1-.2.1-.2.1-.2.1-.2.1-.2.1-.2.1-.2.1-.2.1-.2.1-.2L36,30l.1-.2.1-.2.1-.2.1-.2.1-.2.1-.2.1-.2.1-.2.1-.2L37,28l.1-.2.1-.2.1-.2.1-.2.1-.2.1-.2.1-.2.1-.2.1-.2L38,26l.1-.2.1-.2.1-.2.1-.2V17.6l-.1-.2-.1-.2-.1-.2-.1-.2-.4-.8-.1-.2-.1-.2-.1-.2-.1-.2.1-.2-.1-.2-.1-.2-.1-.2v-.2l-.1-.2-.1-.2-.1-.2-.1-.2-.1-.2-.1-.2-.1-.2-.1-.2-.1-.2-.1-.1-.1-.2-.1-.1-.1-.2-.1-.2-.1-.2-.1-.2-.1-.2-.1-.2-.1-.2-.1-.2-.1-.2-.1-.2-.1-.2-.1-.2-.1-.2-.5.2-.1-.2-.1-.2L33.7,9h-.2l-.1-.1-.1-.1L33,8.6l-.2-.1-.2-.1-.2-.1V8l-.2-.1L32,7.8l-.2-.1-.2-.1-.2-.1-.2-.1L31,7.3l.1-.3-.2-.1-.2-.1-.2-.1-.2-.1-.2-.1L30,6.3l-.2-.1L29.7,6l-.2-.1-.2-.1-.2-.1-.2-.1-.2-.1-.2-.1-.2-.1-.2-.1H28l-.2-.1L27.6,5l-.2-.1-.2-.1H27l-.2-.1-.2-.1-.2-.1-.2-.1-.2.1-.2-.1-.2-.1-.2-.1-.2-.1H21.4C21,3.7,20.8,3.7,20.8,3.7Z"/><path class="cls-3" d="M21.2,4.5h3.6l.3.5.2.1.2.1.2.1.2.1.2.1.2.1.2.1.2.1.2.1.2.1.2.1.2.1.2.1.1-.3.2.1.2.1.2.1.2.1.2.1.2.1.2.1.2.1.2.1.2.1h0l.2.1.2.1.2.1.2.1.2.1.2.1.2.1.2.1.2.1.2.1.2.1.2.1.2.1-.4.4.1.1.1.1.1.1.1.1.1.1.1.1.1.1.1.1.1.1.1.1.1.1.1.2.1.2.1.2.1.2.1.2.1.2.1.2.1.2.1.2.1.2.1.2.1.2.1.2.1.2.1.2.1.2.1.2.1.2.1.2.1.2.1.2H36l.1.2.1.2.1.2.1.2.1.2.1.2.1.2.1.2.1.2.1.2.1.2.1.2.1.2.1.2.1.2.1.2v8l-.1.2-.5.3-.1.2-.1.2-.1.2-.1.2-.1.2-.1.2-.1.2-.1.2-.1.2-.1.2-.1.2.3.1-.1.2-.1.2-.1.2-.1.2-.1.2-.1.2-.1.2-.1.2-.1.2-.1.2h-.1l-.1.1-.1.2-.1.2-.1.2-.1.2-.2.1-.1.2-.1.2-.1.2H34l-.1.2-.1.2-.1.2-.1.2-.1.1-.1.1H33l-.1.1-.1.1-.1.1-.1.1-.1.1-.1.1-.4.4-.1.1-.2.1-.1.2-.2.1-.2.1-.2.1-.2.1-.2.1-.2.1-.2.1.1.3-.2.1-.1.1-.2.1-.2.1-.2.1-.2.1-.2.1-.2.1-.2.1V36l-.2.1-.2.1-.2.1-.2.1-.2.1-.2.1-.2.1-.2.1-.2.1-.2.1-.2.1-.2.1-.1-.2-.2.1-.2.1-.2.1-.2.1-.2.1h-8l-.2-.1-.2-.1-.2-.1-.5-.1-.2-.1-.2-.1-.2-.1-.2-.1-.2-.1-.2-.1-.2-.1-.2-.1-.2-.1-.2-.1v.2l-.2-.1-.2-.1-.2-.1-.2-.1-.2-.1-.2-.1-.2-.1-.2-.1-.2-.1-.2-.1v-.1l-.2-.1-.1-.1-.2-.1-.2-.1-.2-.1-.1-.2-.2-.1-.2-.1-.2-.1V34l-.2-.1-.2-.1-.1-.1-.1-.1-.1-.1-.1-.1-.1-.1-.1-.1-.1-.1L9.2,33l-.1-.1L9,32.8l-.1-.1-.1-.2-.1-.2-.1-.2L8,31.6l-.1-.2-.1-.2L7.7,31H7.5l-.1-.2-.1-.2-.1-.2-.1-.2L7,30.1,6.9,30l-.1-.2-.1-.2-.1-.2-.1-.2L6.4,29l-.1-.2-.1-.2-.1-.2H6l-.1-.2L5.8,28l-.1-.2-.1-.2-.1-.2-.1-.2L5.3,27l-.1-.2-.1-.2L5,26.4l-.1-.2L4.8,26l.2-.1v-.2l-.1-.2-.1-.2-.1-.2V17.5l.2-.5.1-.2v-.4l.1-.2V16l.1-.2.1-.2.1-.2.1-.2.1-.2.1-.2.1-.2.1-.2.1-.2.1-.2H6l.1-.2.1-.2.1-.2.1-.2.1-.2.1-.2.1-.2.1-.2.1-.2H7l.1-.2.1-.2.1-.2.1-.2.1-.2.1-.2h.2l.1-.2.1-.1.1-.2.1-.2.1-.2.1-.1h.3l.1-.1.1-.1L9,9.7l.1-.1.1-.1.1-.1L9.6,9l.1-.1.1-.1.1-.1.2-.1.2-.1.2-.1.2-.1.2-.1.1-.4.2-.1.2-.1.2-.1.2-.1.2-.1V7.1l.2-.1.2-.1.2-.1.2-.1.2-.1.2-.1.2-.1.2-.1.2-.1.2-.1h0l.1-.1.2-.1.2-.1.2-.1.2-.1.2-.1.2-.1.2-.1.2-.1.2-.1.1.2.2-.1.2-.1.2-.1h4.2C21,4.5,21.2,4.5,21.2,4.5Zm-.4,3H16.2l-.2.1-.2.1-.2.1-.2.1-.2.1.8.5-.2.1-.2.1-.2.1-.2.1-.1.1-.1.1-.1.1L14.8,9l-.1.1-.1.1-.1.1-.1.1-.1.1-.1.1-.1.1-.1.1-.1.1-.1.1-.1.1-.6-.1-.1.1-.1.1-.1.1-.1.1-.1.1-.1.1-.1.1-.1.1-.4.2-.1.1-.1.1-.1.1-.1.1-.1.1-.1.1-.1.1-.2.2-.1.1-.1.1-.1.1-.1.1-.1.1-.1.1-.1.1-.1.1L10,13l-.1.1-.1.1-.1.1-.1.1-.1.1-.1.1V14l-.1.1-.1.1-.1.1-.1.1v.3l-.1.1-.1.2-.1.1-.1.1-.1.1-.1.2-.1.2-.1.2.1.1-.1.2-.1.2-.1.2-.1.2-.1.2H8l-.1.2v9.6L8,25.4l.1.2.1.2.1.2H8.2l.1.2.1.2.1.2.1.2.1.2.1.1.1.1.1.1.1.1.1.1-.2.2.1.1V28l.1.1.1.1.1.1.1.1.1.1.1.1.1.1.1.1.1.1.1.1.1.1.1.1.1.1.1.1.1.1.1.1.1.1.1.1.1.1.1.1.1.1.1.1.1.1.1.1.1.1.1.1.1.1.1.1.1.1.1.1.1.1.1.1.1.1.1.1.1.1.1.1.1.1.1.1.1.1.1.1.1.1.1.1.1.1.1.1.1.1.1.1.1.1.1.1.1.1.1.1.1.1.1.1.2.1.2.1.2.1.2.1.2.1.2.1.2.1.2.1.2.1.2.1h9.6l.2-.1.2-.1.2-.1.2-.1.2-.1.2-.1.2-.1.2-.1.2-.1.2-.1.1-.1.1-.1.1-.1.1-.1.1-.1.1-.1.1-.1.1-.1.1-.1.1-.1.1-.1.1-.1.1-.1.1-.1.1-.1.1-.1.1-.1.1-.1.1-.1.1-.1.1-.1.1-.1.1-.1.1-.1.1-.1.1-.1.1-.1.1-.1.1-.1.1-.1.1-.1.1-.1.1-.1.1-.1.1-.1.1-.1.1-.1.1-.1.1-.1.1-.1.1-.1.1-.1.1-.1.1-.1.1-.1.1-.1.1-.1.1-.1.1-.1.1-.1.1-.1.1-.1.1-.1.1-.1.1-.1.1-.1.1-.1.1-.1.1-.1.1-.1L34,27l.1-.2.1-.2.1-.2.1-.2.1-.2.1-.2.1-.2.1-.2.1-.2V15.6L34,17l-.1-.2-.1-.2-.1-.2-.1-.2-.1-.2h.1l-.1-.2-.1-.2-.1-.2-.1-.2-.1-.1L33,15h.1l-.1-.1v-.2l-.1-.1-.1-.1-.1-.1-.1-.1V14l-.1-.1-.1-.1-.1-.1-.1-.1-.1-.1-.1-.4-.1-.1-.1-.1-.1-.1-.1-.1-.1-.1-.1-.1-.1-.1-.1-.1-.1-.3-.1-.1-.1-.1-.1-.1-.1-.1-.1-.1-.1-.1-.1-.1-.1-.1L30,11l-.1-.1-.1-.1-.1-.1-.1-.1-.1-.1-.1-.1-.1-.1-.3-.2-.1-.1-.1-.1-.1-.1-.1-.1-.1-.1-.1-.1-.1-.1-.1-.1-.1-.1L28,9.1,27.9,9l-.1-.1-.6.1L27,8.9l-.1-.1-.1-.1-.1-.1-.2-.1-.2-.1-.2-.1-.1.2-.2-.1-.2-.1-.2-.1-.2-.1L25,8v.1H20.2C21,7.5,20.8,7.5,20.8,7.5Z"/><circle class="cls-3" cx="21" cy="21.2" r="11.9"/></g><g id="stars"><path class="cls-1" d="M6,19.6l.3,1h1l-.8.6.3,1L6,21.5l-.8.6.3-1-.8-.6h1C5.6,20.5,6,19.6,6,19.6Z"/><path class="cls-1" d="M36,19.6l.3,1h1l-.8.6.3,1-.8-.7-.8.6.3-1-.8-.6h1Z"/></g><g id="center-text"><path d="M20.6,31.4a3.75,3.75,0,0,1-1-.1,2.93,2.93,0,0,1-.8-.4,3.51,3.51,0,0,1-.8-.5,2.65,2.65,0,0,1-.5-.6l1.4-1.4a2.7,2.7,0,0,0,.8.7,1.69,1.69,0,0,0,1,.3,1.16,1.16,0,0,0,1-.4,1.27,1.27,0,0,0,.4-.9.9.9,0,0,0-.1-.5,1.38,1.38,0,0,0-.3-.4c-.1-.1-.3-.2-.4-.3a.9.9,0,0,0-.5-.1,1.45,1.45,0,0,0-.7.2c-.2.1-.3.3-.5.4L18,26.7l.8-4.3h5v1.9H20.4l-.2,1.2a.76.76,0,0,1,.5-.2,2,2,0,0,1,.8-.1,4.25,4.25,0,0,1,1.1.2,1.46,1.46,0,0,1,.9.6,5.5,5.5,0,0,1,.7.9,2.77,2.77,0,0,1,.3,1.3,3.19,3.19,0,0,1-.3,1.4,2.84,2.84,0,0,1-.9,1,3.38,3.38,0,0,1-1.2.6A8.87,8.87,0,0,1,20.6,31.4Z"/><path d="M30.2,25.3a.75.75,0,0,1-.1.5,1.38,1.38,0,0,1-.3.4.76.76,0,0,1-.4.2.9.9,0,0,1-.5.1,1.27,1.27,0,0,1-.6-.1,1.38,1.38,0,0,1-.4-.3c-.1-.1-.2-.3-.3-.4a.9.9,0,0,1-.1-.5.75.75,0,0,1,.1-.5,1.38,1.38,0,0,1,.3-.4.76.76,0,0,1,.4-.2.9.9,0,0,1,.5-.1,1.27,1.27,0,0,1,.6.1,1.38,1.38,0,0,1,.4.3c.1.1.2.3.3.4A.75.75,0,0,1,30.2,25.3Zm-.9-.1v-.1l-.1-.1a.1.1,0,0,1-.1-.1H29a.43.43,0,1,0,.4.4Zm-1.6-3.6h.9l-2.1,4.8h-.9Zm-.9,1.3a.75.75,0,0,1-.1.5,1.38,1.38,0,0,1-.3.4.76.76,0,0,1-.4.2,4.33,4.33,0,0,1-.5.1,1.27,1.27,0,0,1-.6-.1,1.38,1.38,0,0,1-.4-.3c-.1-.1-.2-.3-.3-.4a.9.9,0,0,1-.1-.5.75.75,0,0,1,.1-.5,1.38,1.38,0,0,1,.3-.4.76.76,0,0,1,.4-.2.9.9,0,0,1,.5-.1,1.27,1.27,0,0,1,.6.1,1.38,1.38,0,0,1,.4.3c.1.1.2.3.3.4S26.8,22.8,26.8,22.9Zm-1-.1v-.1l-.1-.1a.1.1,0,0,1-.1-.1h-.1a.43.43,0,1,0,.4.4A.1.1,0,0,1,25.8,22.8Z"/><path d="M18,14.7v2.2H16.8V15.8h-.7v3.6h.7v1.1H13.7V19.4h.7V15.8h-.7v1.1H12.5V14.7Z"/><path d="M21.3,20.7a5,5,0,0,1-1.2-.2,2.4,2.4,0,0,1-1.6-1.6,5.21,5.21,0,0,1-.2-1.4,3.73,3.73,0,0,1,.2-1.2,2.07,2.07,0,0,1,.6-1,2.36,2.36,0,0,1,.9-.6,5,5,0,0,1,1.2-.2,4.44,4.44,0,0,1,1.3.2,2,2,0,0,1,.9.6,8.79,8.79,0,0,1,.6,1,5.07,5.07,0,0,1,.2,1.3,5.07,5.07,0,0,1-.2,1.3,2.07,2.07,0,0,1-.6,1,2.36,2.36,0,0,1-.9.6A3.73,3.73,0,0,1,21.3,20.7Zm0-1.3a.6.6,0,0,0,.4-.1,1.38,1.38,0,0,0,.3-.4c.1-.2.1-.3.2-.5s.1-.5.1-.7a1.48,1.48,0,0,0-.1-.7,1.42,1.42,0,0,0-.2-.6,1.38,1.38,0,0,0-.3-.4.6.6,0,0,0-.4-.1.37.37,0,0,0-.3.1,1.38,1.38,0,0,0-.3.4,4.17,4.17,0,0,0-.2.6c0,.2-.1.5-.1.7a1.48,1.48,0,0,0,.1.7,1.42,1.42,0,0,0,.2.6,1.38,1.38,0,0,0,.3.4C21.1,19.5,21.2,19.4,21.3,19.4Z"/><path d="M24.6,14.7h2.7a4.12,4.12,0,0,1,1.2.1,1.61,1.61,0,0,1,.7.4.86.86,0,0,1,.3.6,1.48,1.48,0,0,1,.1.7,1.45,1.45,0,0,1-.2.7,1.21,1.21,0,0,1-.5.5,4.88,4.88,0,0,1-.7.3,2.48,2.48,0,0,1-.9.1h-.6v1.3h.5v1.1H24.5V19.4H25V15.7h-.5C24.6,15.8,24.6,14.7,24.6,14.7Zm2.2,1.1v1.5h.4a1.42,1.42,0,0,0,.6-.2c.2-.1.2-.3.2-.5a1.07,1.07,0,0,0-.2-.6.85.85,0,0,0-.6-.2Z"/></g></g></g></g></svg>