<svg id="Слой_1" data-name="Слой 1" xmlns="http://www.w3.org/2000/svg" width="38.35" height="36.67" viewBox="0 0 38.35 36.67"><title>rating star</title><path d="M817,665.1l4.32,8.77a2.06,2.06,0,0,0,1.56,1.13l9.67,1.41a2.06,2.06,0,0,1,1.14,3.52l-7,6.82a2.07,2.07,0,0,0-.59,1.83l1.65,9.63a2.06,2.06,0,0,1-3,2.18l-8.65-4.55a2.07,2.07,0,0,0-1.92,0l-8.65,4.55a2.06,2.06,0,0,1-3-2.18l1.65-9.63a2.06,2.06,0,0,0-.59-1.83l-7-6.82a2.06,2.06,0,0,1,1.15-3.52l9.67-1.41a2.07,2.07,0,0,0,1.55-1.13l4.32-8.77a2.06,2.06,0,0,1,3.7,0h0Zm0,0" transform="translate(-796 -663.95)" style="fill:#228eef"/></svg>